<?xml version="1.0" encoding="utf-8"?>
<svg version="1.1" xmlns="http://www.w3.org/2000/svg" xmlns:xlink="http://www.w3.org/1999/xlink"
     preserveAspectRatio="xMidYMid meet" viewBox="0 0 625 150" width="625" height="150">
  <defs>
    <path
      d="M64.41 34.18L66.06 34.35L67.68 34.58L69.29 34.88L70.88 35.24L72.44 35.66L73.97 36.14L75.48 36.68L76.96 37.28L78.41 37.93L79.83 38.63L81.22 39.39L82.58 40.2L83.9 41.06L85.18 41.97L86.43 42.93L87.64 43.93L88.81 44.98L89.94 46.07L91.03 47.2L92.07 48.37L93.07 49.59L94.02 50.84L94.92 52.12L95.78 53.44L96.58 54.8L97.34 56.19L98.04 57.61L98.68 59.06L99.28 60.53L99.81 62.04L100.29 63.57L100.7 65.12L101.06 66.7L101.36 68.3L101.59 69.91L101.75 71.55L101.86 73.21L101.89 74.88L101.86 76.55L101.75 78.2L101.59 79.84L101.36 81.46L101.06 83.06L100.7 84.63L100.29 86.19L99.81 87.72L99.28 89.22L98.68 90.7L98.04 92.15L97.34 93.57L96.58 94.96L95.78 96.31L94.92 97.63L94.02 98.92L93.07 100.17L92.07 101.38L91.03 102.55L89.94 103.69L88.81 104.78L87.64 105.82L86.43 106.83L85.18 107.78L83.9 108.69L82.58 109.55L81.22 110.36L79.83 111.12L78.41 111.83L76.96 112.48L75.48 113.07L73.97 113.61L72.44 114.09L70.88 114.52L69.29 114.88L67.68 115.17L66.06 115.41L64.41 115.58L62.74 115.68L61.06 115.71L59.37 115.68L57.7 115.58L56.05 115.41L54.71 115.21L56.26 114.79L57.82 114.3L59.34 113.77L60.85 113.2L62.32 112.58L63.76 111.92L65.17 111.21L66.55 110.47L67.9 109.68L69.21 108.86L70.49 108L71.73 107.11L72.94 106.17L74.11 105.21L75.25 104.21L76.34 103.18L77.4 102.12L78.41 101.04L79.39 99.92L80.32 98.78L81.21 97.61L82.05 96.42L82.85 95.2L83.61 93.96L84.32 92.7L84.98 91.43L85.59 90.13L86.16 88.82L86.67 87.48L87.14 86.14L87.55 84.78L87.91 83.41L88.22 82.02L88.48 80.63L88.67 79.23L88.82 77.82L88.9 76.4L88.93 74.98L88.91 73.78L88.83 72.6L88.7 71.42L88.53 70.27L88.31 69.13L88.04 68L87.72 66.89L87.36 65.8L86.96 64.73L86.52 63.68L86.03 62.65L85.5 61.64L84.94 60.66L84.33 59.7L83.69 58.77L83.01 57.87L82.3 56.99L81.55 56.15L80.77 55.33L79.96 54.55L79.12 53.8L78.24 53.08L77.34 52.4L76.41 51.75L75.46 51.14L74.47 50.57L73.47 50.04L72.44 49.54L71.38 49.09L70.31 48.69L69.21 48.32L68.1 48.01L66.96 47.73L65.81 47.51L64.65 47.33L63.46 47.2L62.27 47.12L61.06 47.1L59.84 47.12L58.65 47.2L57.46 47.33L56.3 47.5L55.15 47.73L54.01 48L52.9 48.32L51.8 48.68L50.73 49.08L49.67 49.53L48.64 50.02L47.64 50.55L46.65 51.12L45.7 51.72L44.77 52.37L43.87 53.05L42.99 53.76L42.15 54.51L41.34 55.29L40.56 56.11L39.81 56.95L39.1 57.83L38.42 58.73L37.78 59.66L37.17 60.62L36.61 61.6L36.08 62.61L35.59 63.64L35.15 64.69L34.75 65.76L34.39 66.85L34.07 67.97L33.8 69.1L33.58 70.24L33.41 71.4L33.28 72.58L33.2 73.77L33.18 74.98L33.19 75.88L33.24 76.78L33.31 77.67L33.41 78.55L33.54 79.42L33.7 80.29L33.88 81.15L34.09 81.99L34.33 82.83L34.59 83.66L34.87 84.47L35.18 85.28L35.52 86.07L35.87 86.85L36.26 87.62L36.66 88.38L37.08 89.12L37.53 89.85L38 90.56L38.49 91.26L39 91.94L39.53 92.6L40.07 93.25L40.64 93.89L41.22 94.5L41.83 95.1L42.45 95.68L43.08 96.24L43.73 96.78L44.4 97.3L45.09 97.8L45.78 98.28L46.5 98.74L47.22 99.17L47.96 99.59L48.72 99.98L49.48 100.35L50.26 100.69L50.47 100.78L50.67 100.88L50.87 100.98L51.06 101.08L51.26 101.2L51.44 101.32L51.63 101.44L51.81 101.57L51.98 101.71L52.15 101.85L52.32 101.99L52.48 102.14L52.63 102.3L52.78 102.46L52.93 102.62L53.07 102.79L53.21 102.96L53.34 103.14L53.46 103.32L53.58 103.5L53.69 103.69L53.8 103.88L53.9 104.08L54 104.27L54.09 104.47L54.17 104.68L54.25 104.88L54.32 105.09L54.39 105.3L54.45 105.51L54.5 105.73L54.55 105.94L54.59 106.16L54.62 106.38L54.64 106.6L54.66 106.82L54.67 107.05L54.67 107.27L54.67 115.21L54.43 115.17L52.82 114.88L51.23 114.52L49.67 114.09L48.14 113.61L46.63 113.07L45.15 112.48L43.7 111.83L42.28 111.12L40.89 110.36L39.53 109.55L38.21 108.69L36.93 107.78L35.68 106.83L34.47 105.82L33.3 104.78L32.17 103.69L31.09 102.55L30.04 101.38L29.04 100.17L28.09 98.92L27.19 97.63L26.33 96.31L25.53 94.96L24.77 93.57L24.07 92.15L23.43 90.7L22.83 89.22L22.3 87.72L21.82 86.19L21.41 84.63L21.05 83.06L20.75 81.46L20.52 79.84L20.36 78.2L20.25 76.55L20.22 74.88L20.25 73.21L20.36 71.55L20.52 69.91L20.75 68.3L21.05 66.7L21.41 65.12L21.82 63.57L22.3 62.04L22.83 60.53L23.43 59.06L24.07 57.61L24.77 56.19L25.53 54.8L26.33 53.44L27.19 52.12L28.09 50.84L29.04 49.59L30.04 48.37L31.09 47.2L32.17 46.07L33.3 44.98L34.47 43.93L35.68 42.93L36.93 41.97L38.21 41.06L39.53 40.2L40.89 39.39L42.28 38.63L43.7 37.93L45.15 37.28L46.63 36.68L48.14 36.14L49.67 35.66L51.23 35.24L52.82 34.88L54.43 34.58L56.05 34.35L57.7 34.18L59.37 34.08L61.06 34.04L62.74 34.08L64.41 34.18Z"
      id="b4WFJL5JGh"></path>
    <path
      d="M147.86 57.15L148.59 57.19L149.29 57.25L149.98 57.33L150.64 57.43L151.28 57.54L151.9 57.67L152.5 57.82L153.09 57.99L153.65 58.17L154.19 58.37L154.71 58.59L155.21 58.83L155.69 59.08L156.14 59.36L156.58 59.64L157 59.95L157.4 60.28L157.78 60.62L158.13 60.98L158.47 61.35L158.79 61.75L159.08 62.16L159.36 62.59L159.61 63.04L159.85 63.5L160.06 63.99L160.25 64.49L160.43 65L160.58 65.54L160.71 66.09L160.82 66.66L160.92 67.25L160.99 67.85L161.04 68.48L161.07 69.12L161.08 69.77L161.08 100.01L161.08 100.07L161.08 100.14L161.07 100.21L161.07 100.27L161.06 100.33L161.05 100.39L161.04 100.44L161.03 100.5L161.01 100.55L161 100.6L160.98 100.65L160.96 100.7L160.94 100.74L160.91 100.79L160.89 100.83L160.86 100.87L160.84 100.91L160.81 100.94L160.77 100.98L160.74 101.01L160.7 101.04L160.67 101.07L160.63 101.09L160.59 101.12L160.54 101.14L160.5 101.16L160.45 101.18L160.4 101.2L160.35 101.21L160.3 101.23L160.24 101.24L160.19 101.25L160.13 101.26L160.07 101.27L160 101.27L159.94 101.28L159.87 101.28L159.8 101.28L158.04 101.28L157.97 101.28L157.9 101.28L157.84 101.27L157.77 101.27L157.71 101.26L157.65 101.25L157.6 101.24L157.54 101.23L157.49 101.21L157.44 101.2L157.39 101.18L157.34 101.16L157.29 101.14L157.25 101.12L157.21 101.09L157.17 101.07L157.13 101.04L157.09 101.01L157.06 100.98L157.02 100.94L156.99 100.91L156.96 100.87L156.93 100.83L156.9 100.79L156.87 100.74L156.85 100.7L156.83 100.65L156.8 100.6L156.78 100.55L156.77 100.5L156.75 100.44L156.73 100.39L156.72 100.33L156.7 100.27L156.69 100.21L156.68 100.14L156.67 100.07L156.66 100.01L156.27 96.28L155.89 96.58L155.51 96.88L155.13 97.17L154.74 97.45L154.36 97.72L153.97 97.99L153.58 98.25L153.19 98.49L152.8 98.74L152.41 98.97L152.02 99.19L151.63 99.41L151.23 99.62L150.83 99.82L150.44 100.01L150.04 100.19L149.64 100.37L149.24 100.53L148.83 100.69L148.43 100.84L148.03 100.99L147.62 101.12L147.21 101.25L146.8 101.37L146.39 101.48L145.98 101.58L145.57 101.67L145.16 101.76L144.74 101.84L144.33 101.9L143.91 101.97L143.49 102.02L143.07 102.06L142.65 102.1L142.23 102.13L141.81 102.15L141.38 102.16L140.96 102.17L140.65 102.16L140.34 102.16L140.04 102.15L139.74 102.13L139.45 102.11L139.16 102.08L138.87 102.06L138.58 102.02L138.3 101.98L138.02 101.94L137.75 101.89L137.48 101.84L137.21 101.78L136.95 101.72L136.69 101.65L136.43 101.58L136.18 101.51L135.93 101.43L135.68 101.34L135.44 101.25L135.2 101.16L134.97 101.06L134.73 100.96L134.51 100.85L134.28 100.74L134.06 100.62L133.85 100.5L133.64 100.37L133.43 100.24L133.22 100.1L133.02 99.96L132.83 99.81L132.63 99.66L132.44 99.5L132.26 99.34L132.08 99.17L131.9 99L131.73 98.83L131.54 98.66L131.35 98.48L131.17 98.3L131 98.12L130.83 97.93L130.67 97.75L130.51 97.55L130.36 97.36L130.21 97.16L130.07 96.96L129.94 96.76L129.81 96.55L129.68 96.34L129.56 96.12L129.45 95.9L129.34 95.68L129.24 95.46L129.14 95.23L129.04 95L128.95 94.77L128.87 94.53L128.79 94.29L128.72 94.04L128.65 93.8L128.59 93.55L128.53 93.29L128.47 93.04L128.43 92.78L128.38 92.51L128.34 92.25L128.31 91.98L128.28 91.7L128.25 91.43L128.23 91.15L128.22 90.86L128.21 90.58L128.2 90.29L128.2 89.99L128.2 89.67L128.21 89.35L128.22 89.03L128.24 88.72L128.27 88.41L128.3 88.1L128.34 87.8L128.38 87.5L128.43 87.2L128.48 86.91L128.54 86.62L128.61 86.33L128.68 86.05L128.76 85.77L128.84 85.49L128.93 85.22L129.03 84.95L129.13 84.68L129.24 84.42L129.35 84.17L129.47 83.91L129.6 83.66L129.73 83.41L129.87 83.17L130.01 82.93L130.16 82.7L130.31 82.47L130.47 82.24L130.64 82.01L130.81 81.79L130.99 81.58L131.18 81.37L131.37 81.16L131.57 80.95L131.77 80.75L131.98 80.56L132.2 80.37L132.42 80.18L132.64 79.99L132.88 79.82L133.11 79.64L133.35 79.47L133.6 79.31L133.85 79.15L134.1 79L134.36 78.85L134.62 78.7L134.89 78.56L135.16 78.43L135.43 78.3L135.71 78.17L135.99 78.05L136.28 77.94L136.57 77.83L136.87 77.72L137.17 77.62L137.47 77.53L137.78 77.44L138.09 77.35L138.41 77.27L138.73 77.19L139.05 77.12L139.38 77.06L139.71 77L140.05 76.94L140.39 76.89L140.73 76.84L141.08 76.8L141.43 76.76L141.79 76.73L142.15 76.71L142.51 76.68L142.88 76.67L143.25 76.65L143.62 76.65L144 76.64L144.14 76.64L144.28 76.65L144.42 76.65L144.56 76.65L144.71 76.65L144.85 76.66L145 76.66L145.14 76.67L145.29 76.68L145.44 76.68L145.59 76.69L145.74 76.7L145.89 76.71L146.04 76.72L146.2 76.73L146.35 76.74L146.51 76.75L146.66 76.77L146.82 76.78L146.98 76.79L147.14 76.81L147.3 76.82L147.47 76.84L147.63 76.85L147.8 76.87L147.97 76.89L148.13 76.91L148.3 76.92L148.48 76.94L148.65 76.96L148.82 76.98L149 77L149.18 77.02L149.35 77.05L149.54 77.07L149.72 77.09L149.9 77.11L150.09 77.13L150.26 77.17L150.43 77.2L150.6 77.23L150.76 77.26L150.93 77.29L151.1 77.33L151.27 77.36L151.44 77.4L151.6 77.43L151.77 77.46L151.94 77.5L152.1 77.53L152.27 77.57L152.43 77.6L152.6 77.64L152.76 77.68L152.93 77.71L153.09 77.75L153.25 77.79L153.41 77.82L153.58 77.86L153.74 77.9L153.9 77.93L154.06 77.97L154.22 78.01L154.38 78.05L154.54 78.09L154.7 78.12L154.86 78.16L155.02 78.2L155.18 78.24L155.33 78.28L155.49 78.32L155.65 78.35L155.8 78.39L155.96 78.43L156.11 78.47L156.27 78.51L156.27 71.44L156.27 71.18L156.26 70.92L156.25 70.67L156.24 70.41L156.22 70.17L156.2 69.92L156.18 69.68L156.15 69.44L156.12 69.21L156.09 68.97L156.05 68.75L156.01 68.52L155.97 68.3L155.92 68.08L155.87 67.87L155.81 67.66L155.76 67.45L155.7 67.25L155.63 67.05L155.56 66.85L155.49 66.66L155.42 66.47L155.34 66.29L155.26 66.11L155.18 65.93L155.09 65.76L155 65.59L154.91 65.42L154.81 65.26L154.71 65.1L154.61 64.95L154.51 64.8L154.4 64.65L154.29 64.51L154.17 64.37L154.06 64.24L153.94 64.11L153.82 63.98L153.69 63.87L153.56 63.77L153.42 63.66L153.28 63.56L153.13 63.46L152.98 63.36L152.82 63.27L152.66 63.17L152.49 63.08L152.32 62.99L152.14 62.9L151.96 62.82L151.77 62.73L151.58 62.65L151.38 62.57L151.18 62.5L150.98 62.43L150.77 62.36L150.55 62.29L150.33 62.22L150.11 62.16L149.88 62.1L149.65 62.05L149.41 62L149.17 61.95L148.93 61.9L148.68 61.86L148.42 61.82L148.17 61.78L147.9 61.75L147.64 61.72L147.37 61.7L147.09 61.68L146.82 61.66L146.54 61.64L146.25 61.63L145.96 61.63L145.67 61.63L145.39 61.63L145.11 61.63L144.83 61.64L144.55 61.64L144.26 61.65L143.98 61.66L143.7 61.68L143.41 61.69L143.12 61.71L142.84 61.73L142.55 61.76L142.26 61.78L141.97 61.81L141.68 61.84L141.39 61.87L141.1 61.91L140.81 61.95L140.51 61.99L140.22 62.03L139.93 62.08L139.63 62.13L139.33 62.18L139.04 62.23L138.74 62.29L138.44 62.35L138.14 62.41L137.84 62.47L137.54 62.54L137.24 62.61L136.93 62.69L136.63 62.77L136.32 62.85L136.02 62.93L135.71 63.02L135.4 63.1L135.1 63.2L134.79 63.29L134.48 63.39L134.42 63.41L134.37 63.42L134.32 63.44L134.27 63.45L134.22 63.47L134.17 63.49L134.13 63.5L134.08 63.52L134.04 63.53L133.99 63.55L133.95 63.56L133.91 63.58L133.87 63.59L133.83 63.6L133.79 63.62L133.75 63.63L133.72 63.65L133.68 63.66L133.64 63.67L133.61 63.69L133.58 63.7L133.54 63.71L133.51 63.73L133.48 63.74L133.42 63.76L133.39 63.78L133.36 63.79L133.33 63.8L133.31 63.81L133.28 63.82L133.25 63.83L133.23 63.84L133.2 63.85L133.18 63.86L133.15 63.87L133.13 63.88L133.1 63.88L133.07 63.9L133.04 63.91L133.01 63.93L132.98 63.94L132.95 63.95L132.93 63.96L132.9 63.97L132.87 63.98L132.84 63.99L132.81 64L132.79 64.01L132.76 64.02L132.74 64.02L132.71 64.03L132.69 64.04L132.66 64.04L132.64 64.05L132.61 64.05L132.59 64.06L132.57 64.06L132.54 64.06L132.52 64.07L132.5 64.07L132.48 64.07L132.46 64.07L132.44 64.07L132.42 64.07L132.4 64.08L132.38 64.08L132.36 64.08L132.34 64.08L132.32 64.08L132.3 64.08L132.29 64.08L132.27 64.08L132.25 64.08L132.22 64.08L132.17 64.08L132.11 64.08L132.06 64.07L132.01 64.07L131.97 64.06L131.92 64.05L131.87 64.04L131.83 64.03L131.78 64.01L131.74 64L131.7 63.98L131.66 63.97L131.62 63.95L131.59 63.92L131.55 63.9L131.52 63.88L131.48 63.85L131.45 63.83L131.42 63.8L131.39 63.77L131.37 63.74L131.34 63.7L131.32 63.67L131.3 63.63L131.28 63.6L131.26 63.56L131.24 63.52L131.22 63.48L131.21 63.44L131.19 63.39L131.18 63.35L131.17 63.3L131.16 63.26L131.15 63.21L131.15 63.16L131.14 63.11L131.14 63.05L131.14 63L131.14 61.63L131.14 61.56L131.14 61.49L131.15 61.42L131.15 61.36L131.16 61.3L131.17 61.24L131.18 61.18L131.19 61.12L131.21 61.06L131.22 61L131.24 60.95L131.26 60.9L131.28 60.85L131.3 60.79L131.32 60.75L131.34 60.7L131.37 60.65L131.39 60.6L131.42 60.56L131.45 60.51L131.48 60.47L131.52 60.43L131.55 60.39L131.59 60.35L131.62 60.31L131.66 60.27L131.7 60.23L131.74 60.19L131.78 60.16L131.83 60.12L131.87 60.09L131.92 60.05L131.97 60.02L132.01 59.99L132.06 59.95L132.11 59.92L132.17 59.89L132.22 59.86L132.39 59.79L132.56 59.72L132.73 59.66L132.91 59.59L133.08 59.53L133.25 59.47L133.43 59.41L133.6 59.35L133.77 59.29L133.95 59.23L134.13 59.18L134.3 59.12L134.48 59.07L134.66 59.02L134.84 58.97L135.02 58.92L135.2 58.87L135.38 58.82L135.56 58.77L135.74 58.72L135.92 58.67L136.11 58.62L136.29 58.58L136.48 58.53L136.67 58.49L136.85 58.44L137.04 58.39L137.23 58.35L137.42 58.3L137.62 58.26L137.81 58.21L138 58.17L138.2 58.12L138.39 58.08L138.59 58.03L138.79 57.99L138.99 57.94L139.19 57.9L139.38 57.85L139.56 57.81L139.75 57.76L139.94 57.72L140.12 57.68L140.31 57.65L140.5 57.61L140.69 57.57L140.88 57.54L141.07 57.51L141.26 57.48L141.45 57.45L141.63 57.42L141.82 57.39L142.01 57.37L142.2 57.35L142.39 57.32L142.58 57.3L142.77 57.28L142.96 57.26L143.15 57.25L143.34 57.23L143.53 57.21L143.72 57.2L143.91 57.19L144.1 57.18L144.29 57.16L144.48 57.15L144.67 57.15L144.86 57.14L145.05 57.13L145.23 57.13L145.42 57.12L145.61 57.12L145.8 57.11L145.98 57.11L146.17 57.11L146.36 57.11L147.12 57.12L147.86 57.15ZM141.7 80.79L140.22 81.06L138.88 81.44L137.69 81.93L136.63 82.52L135.72 83.23L134.95 84.05L134.32 84.98L133.83 86.02L133.48 87.17L133.27 88.43L133.2 89.8L133.25 90.97L133.4 92.06L133.65 93.04L134.01 93.94L134.45 94.74L135 95.44L135.65 96.05L136.39 96.57L137.23 97L138.17 97.33L139.2 97.56L140.32 97.7L141.55 97.75L142.05 97.74L142.55 97.72L143.06 97.68L143.57 97.63L144.09 97.57L144.62 97.49L145.15 97.39L145.69 97.28L146.24 97.15L146.79 97.01L147.36 96.85L147.93 96.67L148.52 96.47L149.1 96.26L149.69 96.04L150.27 95.8L150.85 95.55L151.43 95.28L152.02 95.01L152.6 94.72L153.18 94.42L153.77 94.11L154.36 93.78L154.96 93.45L155.56 93.1L156.17 92.74L156.17 82.04L155.29 81.83L154.41 81.62L153.54 81.44L152.67 81.28L151.8 81.13L150.94 81L150.09 80.88L149.24 80.79L148.39 80.71L147.56 80.65L146.72 80.61L145.9 80.58L145.08 80.57L143.32 80.62L141.7 80.79Z"
      id="h3rR9q3DPC"></path>
    <path
      d="M230.48 60.35C232.44 62.51 233.52 65.65 233.52 69.97C233.52 72.95 233.52 96.83 233.52 99.81C233.52 100.69 233.13 101.09 232.25 101.09C232.01 101.09 230.13 101.09 229.89 101.09C229.01 101.09 228.61 100.69 228.61 99.81C228.61 97.04 228.61 74.9 228.61 72.13C228.61 68.4 227.93 65.75 226.65 63.98C225.37 62.41 223.31 61.53 220.47 61.53C214.97 61.53 209.77 63.29 205.06 66.83C205.25 68.2 205.25 69.48 205.25 70.95C205.25 73.85 205.25 97.01 205.25 99.91C205.25 100.79 204.86 101.18 203.98 101.18C203.74 101.18 201.86 101.18 201.62 101.18C200.74 101.18 200.34 100.79 200.34 99.91C200.34 97.14 200.34 75 200.34 72.23C200.34 68.5 199.66 65.85 198.38 64.08C197.1 62.51 195.04 61.63 192.2 61.63C186.9 61.63 181.89 63.39 177.08 66.73C177.08 70.05 177.08 96.59 177.08 99.91C177.08 100.79 176.69 101.18 175.8 101.18C175.57 101.18 173.68 101.18 173.45 101.18C172.56 101.18 172.17 100.79 172.17 99.91C172.17 95.89 172.17 63.78 172.17 59.76C172.17 58.88 172.56 58.48 173.45 58.48C173.62 58.48 175.04 58.48 175.21 58.48C176.1 58.48 176.59 58.88 176.59 59.76C176.63 60.09 176.94 62.76 176.98 63.1C179.44 61.13 182.09 59.76 184.93 58.68C187.78 57.6 190.43 57.11 193.08 57.11C198.38 57.11 201.91 59.27 203.78 63.69C206.43 61.53 209.28 59.96 212.32 58.68C215.75 57.6 218.6 57.11 221.64 57.11C225.57 57.11 228.61 58.19 230.48 60.35Z"
      id="a6VtT1oJlc"></path>
    <path
      d="M261.93 57.15L262.65 57.19L263.35 57.25L264.04 57.33L264.7 57.43L265.34 57.54L265.96 57.67L266.57 57.82L267.15 57.99L267.71 58.17L268.25 58.37L268.77 58.59L269.27 58.83L269.75 59.08L270.21 59.36L270.64 59.64L271.06 59.95L271.46 60.28L271.84 60.62L272.19 60.98L272.53 61.35L272.85 61.75L273.14 62.16L273.42 62.59L273.67 63.04L273.91 63.5L274.12 63.99L274.32 64.49L274.49 65L274.64 65.54L274.77 66.09L274.89 66.66L274.98 67.25L275.05 67.85L275.1 68.48L275.13 69.12L275.14 69.77L275.14 100.01L275.14 100.07L275.14 100.14L275.13 100.21L275.13 100.27L275.12 100.33L275.11 100.39L275.1 100.44L275.09 100.5L275.07 100.55L275.06 100.6L275.04 100.65L275.02 100.7L275 100.74L274.98 100.79L274.95 100.83L274.92 100.87L274.9 100.91L274.87 100.94L274.83 100.98L274.8 101.01L274.76 101.04L274.73 101.07L274.69 101.09L274.65 101.12L274.6 101.14L274.56 101.16L274.51 101.18L274.46 101.2L274.41 101.21L274.36 101.23L274.3 101.24L274.25 101.25L274.19 101.26L274.13 101.27L274.07 101.27L274 101.28L273.93 101.28L273.87 101.28L272.1 101.28L272.03 101.28L271.96 101.28L271.9 101.27L271.84 101.27L271.77 101.26L271.72 101.25L271.66 101.24L271.6 101.23L271.55 101.21L271.5 101.2L271.45 101.18L271.4 101.16L271.36 101.14L271.31 101.12L271.27 101.09L271.23 101.07L271.19 101.04L271.15 101.01L271.12 100.98L271.08 100.94L271.05 100.91L271.02 100.87L270.99 100.83L270.96 100.79L270.94 100.74L270.91 100.7L270.89 100.65L270.87 100.6L270.85 100.55L270.83 100.5L270.81 100.44L270.79 100.39L270.78 100.33L270.76 100.27L270.75 100.21L270.74 100.14L270.73 100.07L270.72 100.01L270.33 96.28L269.95 96.58L269.57 96.88L269.19 97.17L268.8 97.45L268.42 97.72L268.03 97.99L267.64 98.25L267.25 98.49L266.86 98.74L266.47 98.97L266.08 99.19L265.69 99.41L265.29 99.62L264.9 99.82L264.5 100.01L264.1 100.19L263.7 100.37L263.3 100.53L262.9 100.69L262.49 100.84L262.09 100.99L261.68 101.12L261.27 101.25L260.87 101.37L260.46 101.48L260.04 101.58L259.63 101.67L259.22 101.76L258.8 101.84L258.39 101.9L257.97 101.97L257.55 102.02L257.13 102.06L256.71 102.1L256.29 102.13L255.87 102.15L255.44 102.16L255.02 102.17L254.71 102.16L254.41 102.16L254.1 102.15L253.8 102.13L253.51 102.11L253.22 102.08L252.93 102.06L252.64 102.02L252.36 101.98L252.09 101.94L251.81 101.89L251.54 101.84L251.27 101.78L251.01 101.72L250.75 101.65L250.49 101.58L250.24 101.51L249.99 101.43L249.74 101.34L249.5 101.25L249.26 101.16L249.03 101.06L248.8 100.96L248.57 100.85L248.34 100.74L248.12 100.62L247.91 100.5L247.7 100.37L247.49 100.24L247.28 100.1L247.08 99.96L246.89 99.81L246.69 99.66L246.51 99.5L246.32 99.34L246.14 99.17L245.96 99L245.79 98.83L245.61 98.64L245.43 98.45L245.26 98.26L245.09 98.07L244.93 97.88L244.78 97.68L244.63 97.48L244.48 97.28L244.34 97.08L244.21 96.87L244.08 96.66L243.96 96.45L243.84 96.24L243.73 96.03L243.62 95.81L243.52 95.58L243.42 95.36L243.33 95.13L243.24 94.9L243.16 94.67L243.08 94.43L243.01 94.19L242.94 93.94L242.87 93.7L242.81 93.45L242.76 93.19L242.71 92.93L242.67 92.67L242.62 92.4L242.59 92.13L242.56 91.85L242.53 91.57L242.51 91.29L242.49 91L242.47 90.71L242.46 90.41L242.46 90.11L242.45 89.8L242.46 89.47L242.47 89.15L242.48 88.84L242.5 88.52L242.53 88.21L242.56 87.9L242.59 87.6L242.64 87.3L242.69 87L242.74 86.71L242.8 86.42L242.87 86.13L242.94 85.85L243.02 85.57L243.1 85.29L243.19 85.02L243.29 84.75L243.39 84.49L243.5 84.23L243.61 83.97L243.73 83.72L243.85 83.46L243.99 83.22L244.12 82.98L244.27 82.74L244.42 82.5L244.57 82.27L244.73 82.04L244.9 81.82L245.07 81.6L245.25 81.38L245.44 81.17L245.63 80.96L245.82 80.76L246.03 80.56L246.24 80.36L246.45 80.17L246.67 79.98L246.9 79.8L247.13 79.62L247.37 79.45L247.61 79.28L247.85 79.11L248.1 78.95L248.36 78.8L248.61 78.65L248.88 78.51L249.14 78.37L249.41 78.23L249.69 78.1L249.97 77.98L250.25 77.86L250.54 77.74L250.83 77.63L251.13 77.53L251.43 77.43L251.73 77.33L252.04 77.24L252.35 77.16L252.67 77.07L252.99 77L253.31 76.93L253.64 76.86L253.97 76.8L254.31 76.74L254.65 76.69L254.99 76.65L255.34 76.6L255.69 76.57L256.05 76.54L256.41 76.51L256.77 76.49L257.14 76.47L257.51 76.46L257.88 76.45L258.26 76.45L258.4 76.45L258.54 76.45L258.68 76.45L258.82 76.45L258.97 76.46L259.11 76.46L259.26 76.47L259.4 76.47L259.55 76.48L259.7 76.49L259.85 76.49L260 76.5L260.15 76.51L260.3 76.52L260.45 76.53L260.61 76.54L260.76 76.56L260.92 76.57L261.08 76.58L261.24 76.6L261.4 76.61L261.56 76.63L261.73 76.64L261.89 76.66L262.06 76.67L262.22 76.69L262.39 76.71L262.56 76.73L262.73 76.75L262.91 76.77L263.08 76.79L263.26 76.81L263.43 76.83L263.61 76.85L263.79 76.87L263.97 76.89L264.16 76.92L264.34 76.94L264.51 76.97L264.68 77L264.85 77.03L265.02 77.07L265.19 77.1L265.36 77.13L265.53 77.17L265.69 77.2L265.86 77.23L266.03 77.27L266.19 77.3L266.36 77.34L266.53 77.37L266.69 77.41L266.85 77.44L267.02 77.48L267.18 77.52L267.35 77.55L267.51 77.59L267.67 77.63L267.83 77.66L268 77.7L268.16 77.74L268.32 77.78L268.48 77.81L268.64 77.85L268.8 77.89L268.96 77.93L269.12 77.97L269.27 78L269.43 78.04L269.59 78.08L269.75 78.12L269.9 78.16L270.06 78.2L270.22 78.24L270.37 78.27L270.53 78.31L270.53 71.15L270.53 70.89L270.52 70.63L270.51 70.37L270.5 70.12L270.48 69.87L270.46 69.63L270.44 69.38L270.41 69.15L270.38 68.91L270.35 68.68L270.31 68.45L270.27 68.23L270.23 68.01L270.18 67.79L270.13 67.57L270.07 67.36L270.01 67.16L269.95 66.95L269.89 66.75L269.82 66.56L269.75 66.37L269.68 66.18L269.6 65.99L269.52 65.81L269.44 65.64L269.35 65.46L269.26 65.29L269.17 65.13L269.07 64.97L268.97 64.81L268.87 64.65L268.77 64.5L268.66 64.36L268.55 64.22L268.43 64.08L268.32 63.94L268.2 63.81L268.07 63.69L267.95 63.58L267.82 63.47L267.68 63.37L267.54 63.27L267.39 63.17L267.24 63.07L267.08 62.97L266.92 62.88L266.75 62.78L266.58 62.69L266.4 62.61L266.22 62.52L266.03 62.44L265.84 62.36L265.64 62.28L265.44 62.2L265.23 62.13L265.02 62.06L264.81 61.99L264.59 61.93L264.37 61.87L264.14 61.81L263.91 61.75L263.67 61.7L263.43 61.65L263.18 61.61L262.93 61.56L262.68 61.52L262.42 61.49L262.16 61.46L261.9 61.43L261.63 61.4L261.35 61.38L261.07 61.36L260.79 61.35L260.51 61.34L260.22 61.33L259.93 61.33L259.65 61.33L259.37 61.34L259.09 61.34L258.8 61.35L258.52 61.36L258.24 61.37L257.95 61.38L257.67 61.4L257.38 61.42L257.1 61.44L256.81 61.46L256.52 61.49L256.23 61.52L255.94 61.55L255.65 61.58L255.36 61.61L255.07 61.65L254.77 61.69L254.48 61.74L254.18 61.78L253.89 61.83L253.59 61.88L253.29 61.94L253 61.99L252.7 62.05L252.4 62.11L252.1 62.18L251.8 62.25L251.49 62.32L251.19 62.39L250.89 62.47L250.58 62.55L250.28 62.63L249.97 62.72L249.66 62.81L249.35 62.9L249.05 63L248.74 63.1L248.68 63.11L248.63 63.13L248.58 63.14L248.53 63.16L248.48 63.18L248.43 63.19L248.39 63.21L248.34 63.22L248.29 63.24L248.25 63.25L248.21 63.27L248.17 63.28L248.13 63.3L248.09 63.31L248.05 63.32L248.01 63.34L247.97 63.35L247.94 63.37L247.9 63.38L247.87 63.39L247.83 63.41L247.8 63.42L247.77 63.43L247.74 63.45L247.68 63.47L247.65 63.48L247.62 63.49L247.59 63.5L247.56 63.51L247.54 63.53L247.51 63.54L247.48 63.55L247.46 63.55L247.43 63.56L247.41 63.57L247.39 63.58L247.36 63.59L247.34 63.6L247.31 63.6L247.29 63.61L247.27 63.62L247.24 63.63L247.22 63.64L247.19 63.64L247.17 63.65L247.14 63.66L247.11 63.66L247.09 63.67L247.06 63.68L247.04 63.69L247.01 63.69L246.99 63.7L246.96 63.71L246.93 63.71L246.91 63.72L246.88 63.72L246.86 63.73L246.83 63.74L246.81 63.74L246.78 63.75L246.76 63.75L246.74 63.75L246.71 63.76L246.69 63.76L246.67 63.77L246.65 63.77L246.63 63.77L246.61 63.78L246.59 63.78L246.57 63.78L246.55 63.78L246.53 63.78L246.51 63.78L246.49 63.79L246.48 63.79L246.42 63.78L246.37 63.78L246.32 63.78L246.27 63.77L246.22 63.77L246.18 63.76L246.13 63.75L246.08 63.73L246.04 63.72L246 63.71L245.96 63.69L245.92 63.67L245.88 63.65L245.84 63.63L245.81 63.61L245.77 63.58L245.74 63.56L245.71 63.53L245.68 63.5L245.65 63.47L245.63 63.44L245.6 63.41L245.58 63.38L245.55 63.34L245.53 63.3L245.51 63.27L245.5 63.23L245.48 63.19L245.46 63.14L245.45 63.1L245.44 63.05L245.43 63.01L245.42 62.96L245.41 62.91L245.41 62.86L245.4 62.81L245.4 62.76L245.4 62.71L245.4 61.33L245.4 61.26L245.4 61.2L245.41 61.13L245.41 61.07L245.42 61L245.43 60.94L245.44 60.88L245.45 60.82L245.46 60.77L245.48 60.71L245.5 60.66L245.51 60.6L245.53 60.55L245.55 60.5L245.58 60.45L245.6 60.4L245.63 60.36L245.65 60.31L245.68 60.26L245.71 60.22L245.74 60.18L245.77 60.13L245.81 60.09L245.84 60.05L245.88 60.01L245.92 59.98L245.96 59.94L246 59.9L246.04 59.86L246.08 59.83L246.13 59.79L246.18 59.76L246.22 59.73L246.27 59.69L246.32 59.66L246.37 59.63L246.42 59.6L246.48 59.56L246.65 59.5L246.82 59.43L246.99 59.36L247.16 59.3L247.34 59.23L247.51 59.17L247.68 59.11L247.86 59.05L248.03 59L248.21 58.94L248.38 58.88L248.56 58.83L248.74 58.78L248.92 58.72L249.09 58.67L249.27 58.62L249.45 58.57L249.63 58.52L249.82 58.47L250 58.42L250.18 58.38L250.37 58.33L250.55 58.28L250.74 58.24L250.92 58.19L251.11 58.15L251.3 58.1L251.49 58.05L251.68 58.01L251.87 57.96L252.07 57.92L252.26 57.87L252.46 57.83L252.65 57.78L252.85 57.74L253.05 57.69L253.25 57.65L253.45 57.6L253.62 57.58L253.79 57.56L253.96 57.53L254.14 57.51L254.31 57.49L254.49 57.47L254.67 57.45L254.85 57.43L255.03 57.41L255.21 57.39L255.39 57.37L255.57 57.35L255.75 57.34L255.93 57.32L256.12 57.3L256.3 57.29L256.49 57.27L256.67 57.26L256.86 57.25L257.05 57.23L257.23 57.22L257.42 57.21L257.61 57.2L257.79 57.19L257.98 57.18L258.17 57.17L258.36 57.16L258.54 57.15L258.73 57.14L258.92 57.14L259.11 57.13L259.3 57.12L259.48 57.12L259.67 57.12L259.86 57.11L260.04 57.11L260.23 57.11L260.42 57.11L261.18 57.12L261.93 57.15ZM255.95 80.79L254.47 81.06L253.14 81.44L251.94 81.93L250.89 82.52L249.98 83.23L249.21 84.05L248.58 84.98L248.09 86.02L247.74 87.17L247.53 88.43L247.46 89.8L247.51 90.97L247.66 92.06L247.91 93.04L248.26 93.94L248.71 94.74L249.26 95.44L249.91 96.05L250.65 96.57L251.49 97L252.42 97.33L253.46 97.56L254.58 97.7L255.8 97.75L256.3 97.74L256.81 97.72L257.32 97.68L257.83 97.63L258.35 97.57L258.88 97.49L259.41 97.39L259.95 97.28L260.5 97.15L261.05 97.01L261.62 96.85L262.19 96.67L262.77 96.47L263.34 96.26L263.91 96.04L264.49 95.8L265.07 95.55L265.65 95.28L266.23 95.01L266.82 94.72L267.41 94.42L268.01 94.11L268.61 93.78L269.21 93.45L269.82 93.1L270.43 92.74L270.43 82.04L269.51 81.83L268.59 81.62L267.69 81.44L266.8 81.28L265.92 81.13L265.05 81L264.2 80.88L263.36 80.79L262.53 80.71L261.71 80.65L260.91 80.61L260.11 80.58L259.34 80.57L257.57 80.62L255.95 80.79Z"
      id="b1j0pWh0Qz"></path>
    <path
      d="M315.78 99.91C315.78 100.79 315.39 101.18 314.5 101.18C311.5 101.18 287.47 101.18 284.47 101.18C283.58 101.18 283.19 100.79 283.19 99.91C283.19 99.73 283.19 98.32 283.19 98.14C283.19 97.65 283.19 97.06 283.39 96.77C283.58 96.37 283.78 96.08 284.27 95.49C286 93.3 294.64 82.34 310.18 62.61C295.46 62.61 287.28 62.61 285.64 62.61C284.76 62.61 284.37 62.21 284.37 61.33C284.37 61.15 284.37 59.74 284.37 59.56C284.37 58.68 284.76 58.29 285.64 58.29C288.54 58.29 311.71 58.29 314.6 58.29C315.48 58.29 315.88 58.68 315.88 59.56C315.88 59.74 315.88 61.15 315.88 61.33C315.88 61.82 315.88 62.21 315.68 62.61C315.48 63 315.29 63.49 314.8 63.98C313.07 66.17 304.43 77.13 288.88 96.87C304.43 96.87 313.07 96.87 314.8 96.87C315.48 96.87 315.78 97.26 315.78 98.14C315.78 98.49 315.78 99.73 315.78 99.91Z"
      id="a78X0sLUXX"></path>
    <path
      d="M342.16 57.14L342.82 57.18L343.47 57.24L344.1 57.31L344.73 57.4L345.34 57.51L345.95 57.63L346.54 57.76L347.12 57.92L347.69 58.09L348.25 58.27L348.8 58.48L349.33 58.69L349.86 58.93L350.38 59.18L350.88 59.45L351.37 59.73L351.86 60.03L352.33 60.34L352.79 60.67L353.24 61.02L353.68 61.38L354.11 61.76L354.53 62.16L354.94 62.57L355.34 63L355.72 63.44L356.09 63.9L356.44 64.37L356.78 64.85L357.1 65.34L357.41 65.85L357.7 66.37L357.97 66.91L358.23 67.46L358.48 68.02L358.71 68.59L358.92 69.18L359.12 69.79L359.31 70.4L359.48 71.03L359.63 71.68L359.78 72.33L359.9 73L360.02 73.69L360.12 74.39L360.2 75.1L360.28 75.83L360.34 76.57L360.38 77.33L360.42 78.1L360.44 78.89L360.44 79.69L360.43 80.49L360.41 81.27L360.38 82.04L360.33 82.8L360.26 83.54L360.18 84.27L360.09 84.99L359.98 85.69L359.86 86.38L359.72 87.05L359.58 87.71L359.41 88.36L359.23 88.99L359.04 89.62L358.84 90.22L358.62 90.82L358.39 91.4L358.14 91.98L357.89 92.53L357.61 93.08L357.33 93.61L357.03 94.14L356.72 94.65L356.39 95.14L356.05 95.63L355.7 96.11L355.34 96.57L354.95 97L354.55 97.41L354.14 97.81L353.72 98.19L353.29 98.55L352.84 98.9L352.39 99.23L351.92 99.54L351.44 99.84L350.95 100.13L350.45 100.39L349.93 100.64L349.41 100.88L348.87 101.09L348.32 101.3L347.76 101.48L347.19 101.65L346.6 101.81L346.01 101.94L345.4 102.06L344.78 102.17L344.15 102.26L343.51 102.33L342.85 102.39L342.18 102.43L341.5 102.45L340.81 102.46L340.13 102.45L339.46 102.43L338.8 102.39L338.15 102.33L337.51 102.26L336.89 102.17L336.28 102.06L335.67 101.94L335.08 101.81L334.5 101.65L333.93 101.48L333.37 101.3L332.82 101.09L332.28 100.88L331.76 100.64L331.24 100.39L330.74 100.13L330.24 99.84L329.76 99.54L329.29 99.23L328.83 98.9L328.38 98.55L327.94 98.19L327.51 97.81L327.09 97.41L326.68 97L326.28 96.57L325.9 96.13L325.53 95.67L325.18 95.2L324.84 94.71L324.52 94.21L324.21 93.69L323.92 93.16L323.65 92.62L323.39 92.06L323.14 91.49L322.91 90.91L322.7 90.31L322.5 89.69L322.31 89.07L322.14 88.42L321.99 87.77L321.84 87.1L321.72 86.42L321.6 85.73L321.5 85.02L321.41 84.29L321.34 83.56L321.28 82.81L321.24 82.05L321.2 81.28L321.18 80.49L321.18 79.69L321.19 78.89L321.21 78.1L321.24 77.33L321.29 76.57L321.36 75.83L321.44 75.1L321.53 74.39L321.64 73.69L321.76 73L321.9 72.33L322.04 71.68L322.21 71.03L322.38 70.4L322.58 69.79L322.78 69.18L323 68.59L323.23 68.02L323.48 67.46L323.73 66.91L324.01 66.37L324.29 65.85L324.59 65.34L324.9 64.85L325.23 64.37L325.57 63.9L325.92 63.44L326.28 63L326.68 62.57L327.09 62.16L327.51 61.76L327.94 61.38L328.38 61.02L328.83 60.67L329.29 60.34L329.76 60.03L330.24 59.73L330.74 59.45L331.24 59.18L331.76 58.93L332.28 58.69L332.82 58.48L333.37 58.27L333.93 58.09L334.5 57.92L335.08 57.76L335.67 57.63L336.28 57.51L336.89 57.4L337.51 57.31L338.15 57.24L338.8 57.18L339.46 57.14L340.13 57.12L340.81 57.11L341.49 57.12L342.16 57.14ZM338.14 61.6L336.9 61.8L335.73 62.09L334.63 62.46L333.6 62.92L332.63 63.46L331.73 64.08L330.89 64.78L330.13 65.57L329.42 66.44L328.79 67.39L328.22 68.43L327.72 69.54L327.29 70.74L326.92 72.03L326.62 73.39L326.39 74.84L326.22 76.38L326.12 77.99L326.09 79.69L326.12 81.4L326.22 83.02L326.39 84.56L326.63 86.02L326.93 87.39L327.31 88.67L327.74 89.87L328.25 90.99L328.82 92.02L329.46 92.97L330.16 93.84L330.93 94.62L331.77 95.32L332.67 95.94L333.64 96.47L334.67 96.92L335.77 97.29L336.93 97.58L338.16 97.78L339.45 97.9L340.81 97.94L342.18 97.9L343.48 97.78L344.72 97.57L345.88 97.28L346.99 96.91L348.02 96.45L348.99 95.92L349.89 95.3L350.73 94.59L351.49 93.8L352.19 92.94L352.83 91.98L353.4 90.95L353.9 89.83L354.33 88.63L354.7 87.35L355 85.98L355.23 84.53L355.4 83L355.5 81.38L355.53 79.69L355.5 78L355.4 76.4L355.23 74.87L354.99 73.43L354.69 72.07L354.31 70.79L353.88 69.59L353.37 68.47L352.8 67.43L352.16 66.48L351.46 65.6L350.68 64.81L349.85 64.11L348.95 63.48L347.98 62.94L346.95 62.48L345.85 62.1L344.69 61.81L343.46 61.6L342.17 61.47L340.81 61.43L339.44 61.47L338.14 61.6Z"
      id="bme1yyASj"></path>
    <path
      d="M401.96 60.35C404.12 62.51 405.2 65.65 405.2 69.97C405.2 72.95 405.2 96.83 405.2 99.81C405.2 100.69 404.81 101.09 403.93 101.09C403.69 101.09 401.81 101.09 401.57 101.09C400.69 101.09 400.29 100.69 400.29 99.81C400.29 97.04 400.29 74.9 400.29 72.13C400.29 68.4 399.61 65.75 398.13 63.98C396.76 62.41 394.4 61.53 391.36 61.53C388.32 61.53 385.47 62.02 382.82 62.9C380.17 63.79 377.52 65.26 374.87 67.02C374.87 70.31 374.87 96.62 374.87 99.91C374.87 100.79 374.48 101.18 373.6 101.18C373.36 101.18 371.47 101.18 371.24 101.18C370.36 101.18 369.96 100.79 369.96 99.91C369.96 95.89 369.96 63.78 369.96 59.76C369.96 58.88 370.36 58.48 371.24 58.48C371.42 58.48 372.83 58.48 373.01 58.48C373.89 58.48 374.38 58.88 374.38 59.76C374.42 60.13 374.73 63.12 374.77 63.49C377.42 61.53 380.47 59.96 383.51 58.88C386.55 57.6 389.5 57.11 392.34 57.11C396.56 57.11 399.8 58.19 401.96 60.35Z"
      id="fBeAnqvYY"></path>
    <path
      d="M454.12 57.15L454.85 57.19L455.55 57.25L456.23 57.33L456.9 57.43L457.54 57.54L458.16 57.67L458.76 57.82L459.34 57.99L459.9 58.17L460.44 58.37L460.96 58.59L461.46 58.83L461.94 59.08L462.4 59.36L462.84 59.64L463.26 59.95L463.66 60.28L464.03 60.62L464.39 60.98L464.73 61.35L465.04 61.75L465.34 62.16L465.61 62.59L465.87 63.04L466.1 63.5L466.32 63.99L466.51 64.49L466.68 65L466.84 65.54L466.97 66.09L467.08 66.66L467.17 67.25L467.25 67.85L467.3 68.48L467.33 69.12L467.34 69.77L467.34 100.01L467.34 100.07L467.33 100.14L467.33 100.21L467.32 100.27L467.32 100.33L467.31 100.39L467.3 100.44L467.28 100.5L467.27 100.55L467.25 100.6L467.24 100.65L467.22 100.7L467.2 100.74L467.17 100.79L467.15 100.83L467.12 100.87L467.09 100.91L467.06 100.94L467.03 100.98L467 101.01L466.96 101.04L466.92 101.07L466.88 101.09L466.84 101.12L466.8 101.14L466.75 101.16L466.71 101.18L466.66 101.2L466.61 101.21L466.55 101.23L466.5 101.24L466.44 101.25L466.38 101.26L466.32 101.27L466.26 101.27L466.2 101.28L466.13 101.28L466.06 101.28L464.29 101.28L464.23 101.28L464.16 101.28L464.09 101.27L464.03 101.27L463.97 101.26L463.91 101.25L463.86 101.24L463.8 101.23L463.75 101.21L463.7 101.2L463.65 101.18L463.6 101.16L463.55 101.14L463.51 101.12L463.47 101.09L463.42 101.07L463.39 101.04L463.35 101.01L463.31 100.98L463.28 100.94L463.25 100.91L463.22 100.87L463.19 100.83L463.16 100.79L463.13 100.74L463.11 100.7L463.08 100.65L463.06 100.6L463.04 100.55L463.02 100.5L463.01 100.44L462.99 100.39L462.97 100.33L462.96 100.27L462.95 100.21L462.94 100.14L462.93 100.07L462.92 100.01L462.53 96.28L462.15 96.58L461.77 96.88L461.38 97.17L461 97.45L460.61 97.72L460.23 97.99L459.84 98.25L459.45 98.49L459.06 98.74L458.67 98.97L458.28 99.19L457.88 99.41L457.49 99.62L457.09 99.82L456.69 100.01L456.3 100.19L455.9 100.37L455.49 100.53L455.09 100.69L454.69 100.84L454.28 100.99L453.88 101.12L453.47 101.25L453.06 101.37L452.65 101.48L452.24 101.58L451.83 101.67L451.42 101.76L451 101.84L450.59 101.9L450.17 101.97L449.75 102.02L449.33 102.06L448.91 102.1L448.49 102.13L448.06 102.15L447.64 102.16L447.21 102.17L446.91 102.16L446.6 102.16L446.3 102.15L446 102.13L445.71 102.11L445.41 102.08L445.13 102.06L444.84 102.02L444.56 101.98L444.28 101.94L444.01 101.89L443.74 101.84L443.47 101.78L443.2 101.72L442.94 101.65L442.69 101.58L442.43 101.51L442.18 101.43L441.94 101.34L441.7 101.25L441.46 101.16L441.22 101.06L440.99 100.96L440.76 100.85L440.54 100.74L440.32 100.62L440.11 100.5L439.89 100.37L439.68 100.24L439.48 100.1L439.28 99.96L439.08 99.81L438.89 99.66L438.7 99.5L438.52 99.34L438.34 99.17L438.16 99L437.99 98.83L437.8 98.64L437.63 98.45L437.46 98.26L437.29 98.07L437.13 97.88L436.97 97.68L436.82 97.48L436.68 97.28L436.54 97.08L436.41 96.87L436.28 96.66L436.15 96.45L436.04 96.24L435.92 96.03L435.82 95.81L435.71 95.58L435.62 95.36L435.52 95.13L435.44 94.9L435.35 94.67L435.27 94.43L435.2 94.19L435.13 93.94L435.07 93.7L435.01 93.45L434.96 93.19L434.91 92.93L434.86 92.67L434.82 92.4L434.78 92.13L434.75 91.85L434.73 91.57L434.7 91.29L434.68 91L434.67 90.71L434.66 90.41L434.65 90.11L434.65 89.8L434.65 89.47L434.66 89.15L434.68 88.84L434.7 88.52L434.72 88.21L434.75 87.9L434.79 87.6L434.83 87.3L434.88 87L434.94 86.71L435 86.42L435.06 86.13L435.14 85.85L435.21 85.57L435.3 85.29L435.39 85.02L435.48 84.75L435.59 84.49L435.69 84.23L435.81 83.97L435.93 83.72L436.05 83.46L436.18 83.22L436.32 82.98L436.46 82.74L436.61 82.5L436.77 82.27L436.93 82.04L437.1 81.82L437.27 81.6L437.45 81.38L437.63 81.17L437.82 80.96L438.02 80.76L438.22 80.56L438.43 80.36L438.65 80.17L438.87 79.98L439.1 79.8L439.33 79.62L439.57 79.45L439.81 79.28L440.05 79.11L440.3 78.95L440.55 78.8L440.81 78.65L441.07 78.51L441.34 78.37L441.61 78.23L441.88 78.1L442.16 77.98L442.45 77.86L442.73 77.74L443.03 77.63L443.32 77.53L443.62 77.43L443.93 77.33L444.23 77.24L444.55 77.16L444.86 77.07L445.18 77L445.51 76.93L445.84 76.86L446.17 76.8L446.5 76.74L446.84 76.69L447.19 76.65L447.54 76.6L447.89 76.57L448.24 76.54L448.6 76.51L448.96 76.49L449.33 76.47L449.7 76.46L450.08 76.45L450.45 76.45L450.59 76.45L450.73 76.45L450.88 76.45L451.02 76.45L451.16 76.46L451.31 76.46L451.45 76.47L451.6 76.47L451.75 76.48L451.89 76.49L452.04 76.49L452.19 76.5L452.34 76.51L452.5 76.52L452.65 76.53L452.8 76.54L452.96 76.56L453.12 76.57L453.28 76.58L453.44 76.6L453.6 76.61L453.76 76.63L453.92 76.64L454.09 76.66L454.25 76.67L454.42 76.69L454.59 76.71L454.76 76.73L454.93 76.75L455.1 76.77L455.28 76.79L455.45 76.81L455.63 76.83L455.81 76.85L455.99 76.87L456.17 76.89L456.35 76.92L456.54 76.94L456.71 76.97L456.88 77L457.05 77.03L457.22 77.07L457.39 77.1L457.56 77.13L457.72 77.17L457.89 77.2L458.06 77.23L458.22 77.27L458.39 77.3L458.56 77.34L458.72 77.37L458.89 77.41L459.05 77.44L459.22 77.48L459.38 77.52L459.54 77.55L459.71 77.59L459.87 77.63L460.03 77.66L460.19 77.7L460.35 77.74L460.51 77.78L460.67 77.81L460.83 77.85L460.99 77.89L461.15 77.93L461.31 77.97L461.47 78L461.63 78.04L461.79 78.08L461.94 78.12L462.1 78.16L462.26 78.2L462.41 78.24L462.57 78.27L462.72 78.31L462.72 71.15L462.72 70.89L462.72 70.63L462.71 70.37L462.69 70.12L462.68 69.87L462.66 69.63L462.64 69.38L462.61 69.15L462.58 68.91L462.54 68.68L462.51 68.45L462.47 68.23L462.42 68.01L462.37 67.79L462.32 67.57L462.27 67.36L462.21 67.16L462.15 66.95L462.09 66.75L462.02 66.56L461.95 66.37L461.87 66.18L461.8 65.99L461.72 65.81L461.63 65.64L461.55 65.46L461.46 65.29L461.36 65.13L461.27 64.97L461.17 64.81L461.07 64.65L460.96 64.5L460.85 64.36L460.74 64.22L460.63 64.08L460.51 63.94L460.39 63.81L460.27 63.69L460.14 63.58L460.01 63.47L459.87 63.37L459.73 63.27L459.58 63.17L459.43 63.07L459.27 62.97L459.11 62.88L458.94 62.78L458.77 62.69L458.59 62.61L458.41 62.52L458.23 62.44L458.03 62.36L457.84 62.28L457.64 62.2L457.43 62.13L457.22 62.06L457.01 61.99L456.79 61.93L456.56 61.87L456.34 61.81L456.1 61.75L455.87 61.7L455.63 61.65L455.38 61.61L455.13 61.56L454.88 61.52L454.62 61.49L454.36 61.46L454.09 61.43L453.82 61.4L453.55 61.38L453.27 61.36L452.99 61.35L452.7 61.34L452.42 61.33L452.12 61.33L451.84 61.33L451.56 61.34L451.28 61.34L451 61.35L450.72 61.36L450.43 61.37L450.15 61.38L449.86 61.4L449.58 61.42L449.29 61.44L449 61.46L448.72 61.49L448.43 61.52L448.14 61.55L447.85 61.58L447.55 61.61L447.26 61.65L446.97 61.69L446.67 61.74L446.38 61.78L446.08 61.83L445.79 61.88L445.49 61.94L445.19 61.99L444.89 62.05L444.59 62.11L444.29 62.18L443.99 62.25L443.69 62.32L443.39 62.39L443.08 62.47L442.78 62.55L442.47 62.63L442.17 62.72L441.86 62.81L441.55 62.9L441.24 63L440.93 63.1L440.88 63.11L440.83 63.13L440.78 63.14L440.73 63.16L440.68 63.18L440.63 63.19L440.58 63.21L440.54 63.22L440.49 63.24L440.45 63.25L440.41 63.27L440.36 63.28L440.32 63.3L440.28 63.31L440.24 63.32L440.21 63.34L440.17 63.35L440.13 63.37L440.1 63.38L440.06 63.39L440.03 63.41L440 63.42L439.96 63.43L439.93 63.45L439.87 63.47L439.84 63.48L439.81 63.49L439.79 63.5L439.76 63.51L439.73 63.53L439.71 63.54L439.68 63.55L439.65 63.55L439.63 63.56L439.61 63.57L439.58 63.58L439.56 63.59L439.53 63.6L439.5 63.62L439.47 63.63L439.44 63.64L439.41 63.66L439.38 63.67L439.35 63.68L439.32 63.69L439.3 63.7L439.27 63.71L439.24 63.71L439.22 63.72L439.19 63.73L439.16 63.74L439.14 63.74L439.11 63.75L439.09 63.75L439.07 63.76L439.04 63.76L439.02 63.76L439 63.77L438.98 63.77L438.95 63.77L438.93 63.78L438.91 63.78L438.89 63.78L438.87 63.78L438.85 63.78L438.83 63.78L438.81 63.78L438.79 63.78L438.78 63.78L438.76 63.78L438.74 63.79L438.72 63.79L438.71 63.79L438.67 63.79L438.62 63.78L438.57 63.78L438.52 63.78L438.47 63.77L438.42 63.77L438.37 63.76L438.33 63.75L438.28 63.73L438.24 63.72L438.2 63.71L438.15 63.69L438.12 63.67L438.08 63.65L438.04 63.63L438 63.61L437.97 63.58L437.94 63.56L437.91 63.53L437.88 63.5L437.85 63.47L437.82 63.44L437.8 63.41L437.77 63.38L437.75 63.34L437.73 63.3L437.71 63.27L437.69 63.23L437.67 63.19L437.66 63.14L437.65 63.1L437.63 63.05L437.62 63.01L437.62 62.96L437.61 62.91L437.6 62.86L437.6 62.81L437.6 62.76L437.6 62.71L437.6 61.33L437.6 61.26L437.6 61.2L437.6 61.13L437.61 61.07L437.62 61L437.62 60.94L437.63 60.88L437.65 60.82L437.66 60.77L437.67 60.71L437.69 60.66L437.71 60.6L437.73 60.55L437.75 60.5L437.77 60.45L437.8 60.4L437.82 60.36L437.85 60.31L437.88 60.26L437.91 60.22L437.94 60.18L437.97 60.13L438 60.09L438.04 60.05L438.08 60.01L438.12 59.98L438.15 59.94L438.2 59.9L438.24 59.86L438.28 59.83L438.33 59.79L438.37 59.76L438.42 59.73L438.47 59.69L438.52 59.66L438.57 59.63L438.62 59.6L438.67 59.56L438.85 59.5L439.02 59.43L439.19 59.36L439.36 59.3L439.53 59.23L439.71 59.17L439.88 59.11L440.05 59.05L440.23 59L440.4 58.94L440.58 58.88L440.76 58.83L440.93 58.78L441.11 58.72L441.29 58.67L441.47 58.62L441.65 58.57L441.83 58.52L442.01 58.47L442.19 58.42L442.38 58.38L442.56 58.33L442.75 58.28L442.93 58.24L443.12 58.19L443.31 58.15L443.5 58.1L443.69 58.05L443.88 58.01L444.07 57.96L444.26 57.92L444.46 57.87L444.65 57.83L444.85 57.78L445.05 57.74L445.24 57.69L445.44 57.65L445.64 57.6L445.82 57.58L445.99 57.56L446.16 57.53L446.34 57.51L446.51 57.49L446.69 57.47L446.87 57.45L447.04 57.43L447.22 57.41L447.4 57.39L447.58 57.37L447.77 57.35L447.95 57.34L448.13 57.32L448.31 57.3L448.5 57.29L448.68 57.27L448.87 57.26L449.06 57.25L449.24 57.23L449.43 57.22L449.61 57.21L449.8 57.2L449.99 57.19L450.18 57.18L450.36 57.17L450.55 57.16L450.74 57.15L450.93 57.14L451.12 57.14L451.3 57.13L451.49 57.12L451.68 57.12L451.87 57.12L452.05 57.11L452.24 57.11L452.43 57.11L452.61 57.11L453.38 57.12L454.12 57.15ZM447.95 80.79L446.47 81.06L445.14 81.44L443.94 81.93L442.89 82.52L441.98 83.23L441.21 84.05L440.58 84.98L440.09 86.02L439.74 87.17L439.53 88.43L439.46 89.8L439.51 90.97L439.66 92.06L439.91 93.04L440.26 93.94L440.71 94.74L441.26 95.44L441.91 96.05L442.65 96.57L443.49 97L444.42 97.33L445.46 97.56L446.58 97.7L447.8 97.75L448.3 97.74L448.81 97.72L449.32 97.68L449.83 97.63L450.35 97.57L450.88 97.49L451.41 97.39L451.95 97.28L452.5 97.15L453.05 97.01L453.62 96.85L454.19 96.67L454.77 96.47L455.34 96.26L455.91 96.04L456.49 95.8L457.07 95.55L457.65 95.28L458.23 95.01L458.82 94.72L459.41 94.42L460.01 94.11L460.61 93.78L461.21 93.45L461.82 93.1L462.43 92.74L462.43 82.04L461.55 81.83L460.67 81.62L459.8 81.44L458.93 81.28L458.06 81.13L457.2 81L456.35 80.88L455.5 80.79L454.65 80.71L453.81 80.65L452.98 80.61L452.16 80.58L451.34 80.57L449.57 80.62L447.95 80.79Z"
      id="a7IehCuzl"></path>
    <path
      d="M479.8 38.26C480.04 38.26 481.92 38.26 482.16 38.26C483.04 38.26 483.44 38.66 483.44 39.54C483.44 44.98 483.44 88.48 483.44 93.92C483.44 95.2 483.63 96.08 484.12 96.57C484.61 97.06 485.5 97.26 486.77 97.26C487.17 97.26 487.46 97.26 487.85 97.26C488.25 97.26 488.54 97.26 488.93 97.26C489.62 97.26 490.21 97.65 490.21 98.53C490.21 98.69 490.21 99.95 490.21 100.1C490.21 100.79 489.82 101.18 489.13 101.38C488.74 101.58 488.25 101.58 487.75 101.58C487.07 101.58 486.48 101.58 485.99 101.58C483.63 101.58 481.87 100.89 480.69 99.61C479.41 98.34 478.72 96.37 478.72 94.12C478.71 90.48 478.65 72.29 478.53 39.54L478.53 39.54C478.79 38.69 479.21 38.26 479.8 38.26Z"
      id="ajPRn87v7"></path>
    <path
      d="M516.14 57.22L516.53 57.23L516.92 57.25L517.3 57.27L517.67 57.29L518.04 57.33L518.41 57.36L518.77 57.4L519.12 57.45L519.47 57.5L519.81 57.55L520.15 57.61L520.48 57.68L520.81 57.75L521.13 57.82L521.45 57.9L521.76 57.99L522.07 58.08L522.37 58.17L522.66 58.27L522.96 58.37L523.24 58.48L523.52 58.6L523.8 58.72L524.07 58.84L524.33 58.97L524.6 59.11L524.85 59.25L525.1 59.39L525.35 59.54L525.59 59.7L525.83 59.85L526.06 60.02L526.28 60.19L526.51 60.37L526.72 60.55L526.94 60.74L527.14 60.93L527.35 61.13L527.54 61.34L527.73 61.54L527.92 61.75L528.1 61.97L528.27 62.19L528.44 62.41L528.61 62.63L528.77 62.86L528.92 63.09L529.07 63.33L529.21 63.57L529.35 63.81L529.48 64.06L529.6 64.31L529.72 64.56L529.84 64.82L529.94 65.09L530.04 65.35L530.14 65.62L530.23 65.9L530.31 66.18L530.39 66.46L530.46 66.74L530.53 67.03L530.59 67.33L530.64 67.63L530.69 67.93L530.73 68.24L530.77 68.55L530.8 68.86L530.82 69.18L530.83 69.51L530.84 69.83L530.85 70.17L530.84 70.5L530.83 70.82L530.82 71.14L530.8 71.46L530.77 71.77L530.74 72.07L530.7 72.37L530.65 72.66L530.6 72.95L530.54 73.23L530.48 73.51L530.41 73.78L530.33 74.05L530.25 74.31L530.16 74.57L530.07 74.82L529.97 75.07L529.86 75.31L529.75 75.55L529.63 75.78L529.5 76.01L529.37 76.23L529.23 76.45L529.09 76.66L528.93 76.87L528.78 77.07L528.61 77.27L528.44 77.46L528.27 77.65L528.08 77.83L527.89 78.01L527.7 78.19L527.5 78.36L527.29 78.53L527.07 78.69L526.85 78.85L526.63 79L526.39 79.16L526.15 79.31L525.9 79.46L525.65 79.6L525.39 79.74L525.12 79.87L524.84 80L524.56 80.12L524.27 80.24L523.97 80.36L523.67 80.47L523.36 80.58L523.04 80.68L522.71 80.78L522.38 80.87L522.04 80.96L521.7 81.04L521.34 81.12L520.98 81.2L520.62 81.27L520.24 81.34L519.86 81.4L519.47 81.46L519.08 81.51L518.67 81.56L518.26 81.61L517.85 81.65L517.42 81.69L516.99 81.72L516.55 81.75L516.11 81.78L515.65 81.8L515.19 81.82L514.72 81.83L514.25 81.84L513.77 81.84L513.28 81.85L513.1 81.85L512.93 81.84L512.75 81.84L512.58 81.84L512.41 81.84L512.23 81.83L512.06 81.83L511.89 81.82L511.71 81.81L511.54 81.81L511.37 81.8L511.19 81.79L511.02 81.78L510.85 81.77L510.67 81.76L510.5 81.75L510.32 81.74L510.15 81.73L509.97 81.72L509.8 81.71L509.62 81.69L509.45 81.68L509.27 81.67L509.09 81.65L508.91 81.64L508.73 81.62L508.55 81.61L508.37 81.59L508.19 81.58L508.01 81.56L507.82 81.55L507.64 81.53L507.45 81.52L507.27 81.5L507.08 81.49L506.89 81.47L506.7 81.45L506.52 81.44L506.35 81.42L506.17 81.4L506 81.38L505.82 81.36L505.64 81.34L505.46 81.31L505.29 81.29L505.11 81.26L504.93 81.23L504.75 81.21L504.57 81.18L504.4 81.15L504.22 81.12L504.04 81.08L503.86 81.05L503.68 81.02L503.5 80.98L503.32 80.95L503.14 80.91L502.96 80.87L502.78 80.83L502.61 80.79L502.43 80.75L502.25 80.71L502.07 80.67L501.89 80.63L501.71 80.59L501.54 80.54L501.36 80.5L501.18 80.46L501 80.41L500.83 80.37L500.65 80.32L500.47 80.27L500.3 80.23L500.12 80.18L500.13 80.67L500.13 81.15L500.15 81.63L500.17 82.1L500.19 82.56L500.22 83.02L500.26 83.47L500.3 83.92L500.35 84.35L500.4 84.78L500.46 85.21L500.53 85.62L500.6 86.03L500.68 86.44L500.76 86.83L500.85 87.22L500.94 87.61L501.04 87.98L501.15 88.35L501.26 88.71L501.37 89.06L501.5 89.41L501.63 89.75L501.76 90.08L501.9 90.41L502.05 90.72L502.2 91.03L502.36 91.34L502.52 91.63L502.69 91.92L502.87 92.2L503.05 92.47L503.24 92.74L503.43 93L503.63 93.25L503.84 93.49L504.05 93.72L504.27 93.95L504.49 94.17L504.72 94.39L504.95 94.6L505.18 94.81L505.43 95.01L505.67 95.2L505.92 95.39L506.18 95.57L506.44 95.75L506.71 95.92L506.98 96.08L507.26 96.24L507.54 96.39L507.83 96.54L508.12 96.68L508.42 96.81L508.73 96.94L509.04 97.06L509.36 97.18L509.68 97.28L510 97.39L510.34 97.48L510.68 97.57L511.02 97.66L511.37 97.73L511.73 97.8L512.09 97.87L512.46 97.92L512.83 97.97L513.22 98.02L513.6 98.06L514 98.09L514.4 98.11L514.8 98.13L515.21 98.14L515.63 98.14L515.89 98.12L516.16 98.11L516.42 98.09L516.69 98.07L516.95 98.05L517.22 98.03L517.48 98.01L517.75 97.99L518.01 97.97L518.28 97.95L518.55 97.92L518.81 97.9L519.08 97.87L519.35 97.84L519.62 97.81L519.89 97.78L520.16 97.74L520.43 97.71L520.7 97.67L520.97 97.63L521.24 97.59L521.51 97.54L521.79 97.5L522.06 97.45L522.33 97.4L522.61 97.34L522.88 97.29L523.15 97.23L523.43 97.17L523.7 97.1L523.98 97.04L524.26 96.97L524.53 96.89L524.81 96.82L525.09 96.74L525.37 96.66L525.64 96.57L525.7 96.55L525.75 96.54L525.81 96.52L525.86 96.51L525.92 96.49L525.97 96.48L526.02 96.46L526.07 96.44L526.13 96.43L526.18 96.41L526.23 96.4L526.28 96.38L526.32 96.37L526.37 96.35L526.42 96.34L526.46 96.32L526.51 96.31L526.55 96.3L526.6 96.28L526.64 96.27L526.68 96.25L526.72 96.24L526.76 96.23L526.8 96.22L526.84 96.2L526.88 96.19L526.92 96.18L526.95 96.17L526.98 96.16L527.02 96.15L527.05 96.13L527.08 96.12L527.14 96.11L527.21 96.08L527.25 96.06L527.28 96.05L527.31 96.04L527.34 96.02L527.37 96.01L527.4 96L527.43 95.99L527.46 95.98L527.48 95.97L527.51 95.96L527.54 95.95L527.57 95.94L527.59 95.94L527.62 95.93L527.64 95.92L527.67 95.92L527.69 95.91L527.72 95.91L527.74 95.91L527.77 95.9L527.79 95.9L527.81 95.9L527.83 95.89L527.85 95.89L527.88 95.89L527.9 95.89L527.92 95.89L527.94 95.89L527.96 95.89L527.98 95.88L527.99 95.88L528.01 95.88L528.03 95.88L528.05 95.88L528.07 95.88L528.1 95.88L528.15 95.88L528.21 95.89L528.26 95.89L528.31 95.9L528.36 95.9L528.41 95.91L528.46 95.92L528.5 95.94L528.55 95.95L528.59 95.97L528.63 95.98L528.67 96L528.71 96.02L528.75 96.05L528.78 96.07L528.82 96.1L528.85 96.12L528.88 96.15L528.91 96.18L528.94 96.21L528.97 96.24L528.99 96.28L529.01 96.32L529.04 96.35L529.06 96.39L529.08 96.43L529.09 96.47L529.11 96.52L529.12 96.56L529.14 96.61L529.15 96.65L529.16 96.7L529.16 96.75L529.17 96.8L529.17 96.85L529.18 96.91L529.18 96.96L529.18 98.24L529.18 98.31L529.17 98.38L529.17 98.45L529.16 98.51L529.16 98.58L529.15 98.64L529.14 98.7L529.13 98.76L529.11 98.82L529.1 98.88L529.08 98.93L529.06 98.98L529.05 99.04L529.03 99.09L529 99.14L528.98 99.19L528.96 99.24L528.93 99.28L528.91 99.33L528.88 99.37L528.85 99.42L528.82 99.46L528.79 99.5L528.76 99.54L528.73 99.58L528.7 99.62L528.67 99.66L528.63 99.7L528.6 99.73L528.56 99.77L528.52 99.81L528.49 99.84L528.45 99.87L528.41 99.91L528.37 99.94L528.33 99.97L528.29 100.01L527.96 100.15L527.63 100.28L527.29 100.41L526.95 100.54L526.62 100.66L526.28 100.78L525.94 100.9L525.6 101L525.26 101.11L524.92 101.21L524.58 101.31L524.24 101.4L523.9 101.49L523.56 101.57L523.21 101.65L522.87 101.72L522.52 101.8L522.17 101.86L521.83 101.93L521.48 101.99L521.13 102.04L520.77 102.1L520.42 102.14L520.07 102.19L519.71 102.23L519.36 102.27L519 102.3L518.64 102.33L518.28 102.36L517.92 102.38L517.55 102.4L517.19 102.42L516.82 102.44L516.45 102.45L516.08 102.45L515.71 102.46L515.34 102.46L514.81 102.46L514.28 102.44L513.77 102.42L513.26 102.39L512.76 102.35L512.26 102.31L511.77 102.25L511.29 102.19L510.82 102.11L510.35 102.03L509.89 101.94L509.44 101.85L508.99 101.74L508.55 101.63L508.12 101.51L507.69 101.37L507.28 101.24L506.87 101.09L506.46 100.93L506.06 100.77L505.68 100.6L505.29 100.42L504.92 100.23L504.55 100.04L504.19 99.83L503.83 99.62L503.49 99.4L503.15 99.17L502.82 98.94L502.49 98.69L502.17 98.44L501.86 98.18L501.56 97.91L501.26 97.64L500.97 97.36L500.69 97.07L500.42 96.77L500.15 96.46L499.89 96.15L499.64 95.82L499.39 95.5L499.15 95.16L498.92 94.81L498.69 94.46L498.47 94.1L498.26 93.73L498.06 93.36L497.86 92.97L497.67 92.58L497.49 92.18L497.31 91.77L497.15 91.36L496.98 90.94L496.83 90.51L496.68 90.07L496.54 89.62L496.41 89.17L496.29 88.71L496.17 88.24L496.06 87.76L495.96 87.28L495.86 86.79L495.78 86.29L495.7 85.78L495.62 85.26L495.56 84.74L495.5 84.21L495.45 83.67L495.41 83.12L495.37 82.57L495.35 82.01L495.33 81.44L495.32 80.86L495.31 80.28L495.31 79.99L495.32 79.71L495.32 79.42L495.33 79.14L495.34 78.86L495.35 78.58L495.36 78.3L495.38 78.03L495.4 77.75L495.42 77.48L495.44 77.21L495.46 76.93L495.49 76.66L495.52 76.4L495.55 76.13L495.58 75.86L495.61 75.6L495.65 75.34L495.69 75.08L495.73 74.82L495.77 74.56L495.81 74.31L495.86 74.05L495.91 73.8L495.95 73.55L496.01 73.3L496.06 73.05L496.11 72.8L496.17 72.56L496.23 72.31L496.29 72.07L496.35 71.83L496.41 71.59L496.48 71.36L496.55 71.12L496.62 70.89L496.69 70.66L496.76 70.43L496.84 70.2L496.91 69.97L496.99 69.75L497.08 69.52L497.16 69.3L497.25 69.08L497.34 68.87L497.43 68.65L497.52 68.44L497.62 68.22L497.72 68.01L497.82 67.81L497.92 67.6L498.02 67.39L498.12 67.19L498.23 66.99L498.34 66.79L498.45 66.6L498.56 66.4L498.67 66.21L498.78 66.02L498.9 65.83L499.02 65.64L499.13 65.45L499.25 65.27L499.37 65.09L499.49 64.91L499.61 64.73L499.74 64.56L499.86 64.39L499.98 64.22L500.11 64.05L500.23 63.88L500.36 63.72L500.49 63.55L500.61 63.39L500.76 63.23L500.9 63.08L501.05 62.92L501.2 62.77L501.35 62.62L501.5 62.47L501.66 62.32L501.81 62.18L501.97 62.03L502.13 61.89L502.29 61.75L502.45 61.61L502.62 61.47L502.78 61.34L502.95 61.21L503.12 61.07L503.29 60.94L503.46 60.82L503.63 60.69L503.81 60.57L503.98 60.45L504.16 60.33L504.34 60.21L504.52 60.09L504.7 59.98L504.89 59.87L505.07 59.76L505.26 59.65L505.44 59.55L505.63 59.44L505.82 59.34L506.02 59.24L506.21 59.15L506.4 59.05L506.6 58.96L506.8 58.87L506.99 58.78L507.19 58.69L507.4 58.61L507.6 58.53L507.8 58.45L508.01 58.37L508.22 58.3L508.43 58.23L508.64 58.16L508.85 58.09L509.07 58.03L509.28 57.97L509.5 57.91L509.72 57.85L509.94 57.8L510.16 57.75L510.38 57.7L510.61 57.65L510.83 57.61L511.06 57.57L511.29 57.53L511.52 57.49L511.75 57.46L511.98 57.42L512.21 57.39L512.45 57.37L512.68 57.34L512.92 57.32L513.15 57.3L513.39 57.28L513.63 57.26L513.87 57.25L514.12 57.24L514.36 57.23L514.6 57.22L514.85 57.21L515.09 57.21L515.34 57.21L515.74 57.21L516.14 57.22ZM512.86 61.42L511.95 61.53L511.08 61.69L510.24 61.89L509.43 62.14L508.64 62.43L507.89 62.76L507.18 63.13L506.49 63.55L505.84 64.01L505.22 64.52L504.64 65.06L504.09 65.65L503.58 66.28L503.1 66.96L502.65 67.68L502.24 68.45L501.87 69.26L501.53 70.1L501.22 71L500.95 71.93L500.72 72.9L500.52 73.91L500.35 74.96L500.22 76.06L500.72 76.17L501.22 76.29L501.73 76.4L502.24 76.52L502.74 76.64L503.25 76.75L503.76 76.86L504.27 76.96L504.78 77.05L505.29 77.14L505.79 77.21L506.3 77.28L506.8 77.33L507.3 77.42L507.8 77.49L508.31 77.55L508.81 77.59L509.32 77.63L509.83 77.66L510.34 77.69L510.85 77.7L511.36 77.71L511.87 77.72L512.37 77.72L512.87 77.72L513.37 77.72L514.33 77.71L515.25 77.68L516.14 77.62L516.98 77.53L517.79 77.42L518.56 77.29L519.29 77.14L519.98 76.97L520.63 76.77L521.24 76.55L521.8 76.31L522.32 76.04L522.8 75.76L523.23 75.45L523.64 75.12L524.01 74.77L524.35 74.38L524.66 73.97L524.93 73.54L525.17 73.07L525.37 72.58L525.54 72.06L525.67 71.51L525.76 70.93L525.82 70.32L525.84 69.67L525.77 68.45L525.58 67.33L525.25 66.3L524.78 65.36L524.19 64.52L523.47 63.78L522.61 63.13L521.63 62.58L520.51 62.13L519.26 61.78L517.89 61.53L516.38 61.38L514.75 61.33L513.79 61.35L512.86 61.42Z"
      id="daIOQm5ovW"></path>
    <path
      d="M541.45 100.3C540.96 100.99 540.37 101.18 539.68 101.18C539.45 101.18 537.56 101.18 537.33 101.18C536.64 101.18 536.25 100.79 536.25 100.3C536.25 100.1 536.44 99.81 536.74 99.22C537.7 97.87 542.55 91.13 551.26 79C543.25 67.93 538.8 61.78 537.91 60.55C537.52 60.06 537.42 59.66 537.42 59.47C537.42 58.78 537.82 58.58 538.5 58.58C538.77 58.58 540.89 58.58 541.15 58.58C541.84 58.58 542.53 58.98 542.92 59.47C543.67 60.52 547.4 65.79 554.11 75.27C560.71 65.67 564.37 60.34 565.1 59.27C565.6 58.58 566.18 58.39 566.87 58.39C567.11 58.39 568.99 58.39 569.23 58.39C569.91 58.39 570.31 58.78 570.31 59.27C570.31 59.47 570.11 59.76 569.82 60.35C568.94 61.56 564.55 67.61 556.66 78.51C565.38 90.88 570.22 97.75 571.19 99.12C571.58 99.61 571.68 100.01 571.68 100.2C571.68 100.89 571.29 101.09 570.6 101.09C570.34 101.09 568.22 101.09 567.95 101.09C567.26 101.09 566.67 100.69 566.18 100.2C565.35 99.01 561.2 93.06 553.72 82.34C546.36 93.12 542.27 99.1 541.45 100.3Z"
      id="a2UrdLdWTS"></path>
    <path
      d="M595.86 57.15L596.59 57.19L597.29 57.25L597.98 57.33L598.64 57.43L599.28 57.54L599.9 57.67L600.5 57.82L601.09 57.99L601.65 58.17L602.19 58.37L602.71 58.59L603.21 58.83L603.69 59.08L604.14 59.36L604.58 59.64L605 59.95L605.4 60.28L605.78 60.62L606.13 60.98L606.47 61.35L606.79 61.75L607.08 62.16L607.36 62.59L607.61 63.04L607.85 63.5L608.06 63.99L608.25 64.49L608.43 65L608.58 65.54L608.71 66.09L608.82 66.66L608.92 67.25L608.99 67.85L609.04 68.48L609.07 69.12L609.08 69.77L609.08 100.01L609.08 100.07L609.08 100.14L609.07 100.21L609.07 100.27L609.06 100.33L609.05 100.39L609.04 100.44L609.03 100.5L609.01 100.55L609 100.6L608.98 100.65L608.96 100.7L608.94 100.74L608.91 100.79L608.89 100.83L608.86 100.87L608.84 100.91L608.81 100.94L608.77 100.98L608.74 101.01L608.7 101.04L608.67 101.07L608.63 101.09L608.59 101.12L608.54 101.14L608.5 101.16L608.45 101.18L608.4 101.2L608.35 101.21L608.3 101.23L608.24 101.24L608.19 101.25L608.13 101.26L608.07 101.27L608 101.27L607.94 101.28L607.87 101.28L607.8 101.28L606.04 101.28L605.97 101.28L605.9 101.28L605.84 101.27L605.77 101.27L605.71 101.26L605.65 101.25L605.6 101.24L605.54 101.23L605.49 101.21L605.44 101.2L605.39 101.18L605.34 101.16L605.29 101.14L605.25 101.12L605.21 101.09L605.17 101.07L605.13 101.04L605.09 101.01L605.06 100.98L605.02 100.94L604.99 100.91L604.96 100.87L604.93 100.83L604.9 100.79L604.87 100.74L604.85 100.7L604.83 100.65L604.8 100.6L604.78 100.55L604.77 100.5L604.75 100.44L604.73 100.39L604.72 100.33L604.7 100.27L604.69 100.21L604.68 100.14L604.67 100.07L604.66 100.01L604.27 96.28L603.89 96.58L603.51 96.88L603.13 97.17L602.74 97.45L602.36 97.72L601.97 97.99L601.58 98.25L601.19 98.49L600.8 98.74L600.41 98.97L600.02 99.19L599.63 99.41L599.23 99.62L598.83 99.82L598.44 100.01L598.04 100.19L597.64 100.37L597.24 100.53L596.83 100.69L596.43 100.84L596.03 100.99L595.62 101.12L595.21 101.25L594.8 101.37L594.39 101.48L593.98 101.58L593.57 101.67L593.16 101.76L592.74 101.84L592.33 101.9L591.91 101.97L591.49 102.02L591.07 102.06L590.65 102.1L590.23 102.13L589.81 102.15L589.38 102.16L588.96 102.17L588.65 102.16L588.34 102.16L588.04 102.15L587.74 102.13L587.45 102.11L587.16 102.08L586.87 102.06L586.58 102.02L586.3 101.98L586.02 101.94L585.75 101.89L585.48 101.84L585.21 101.78L584.95 101.72L584.69 101.65L584.43 101.58L584.18 101.51L583.93 101.43L583.68 101.34L583.44 101.25L583.2 101.16L582.97 101.06L582.73 100.96L582.51 100.85L582.28 100.74L582.06 100.62L581.85 100.5L581.64 100.37L581.43 100.24L581.22 100.1L581.02 99.96L580.83 99.81L580.63 99.66L580.44 99.5L580.26 99.34L580.08 99.17L579.9 99L579.73 98.83L579.55 98.64L579.37 98.45L579.2 98.26L579.03 98.07L578.87 97.88L578.72 97.68L578.57 97.48L578.42 97.28L578.28 97.08L578.15 96.87L578.02 96.66L577.9 96.45L577.78 96.24L577.67 96.03L577.56 95.81L577.46 95.58L577.36 95.36L577.27 95.13L577.18 94.9L577.1 94.67L577.02 94.43L576.94 94.19L576.88 93.94L576.81 93.7L576.75 93.45L576.7 93.19L576.65 92.93L576.6 92.67L576.56 92.4L576.53 92.13L576.5 91.85L576.47 91.57L576.44 91.29L576.43 91L576.41 90.71L576.4 90.41L576.39 90.11L576.39 89.8L576.4 89.47L576.4 89.15L576.42 88.84L576.44 88.52L576.46 88.21L576.5 87.9L576.53 87.6L576.58 87.3L576.63 87L576.68 86.71L576.74 86.42L576.81 86.13L576.88 85.85L576.96 85.57L577.04 85.29L577.13 85.02L577.23 84.75L577.33 84.49L577.44 84.23L577.55 83.97L577.67 83.72L577.79 83.46L577.92 83.22L578.06 82.98L578.2 82.74L578.35 82.5L578.51 82.27L578.67 82.04L578.84 81.82L579.01 81.6L579.19 81.38L579.37 81.17L579.57 80.96L579.76 80.76L579.97 80.56L580.18 80.36L580.39 80.17L580.61 79.98L580.84 79.8L581.07 79.62L581.31 79.45L581.55 79.28L581.79 79.11L582.04 78.95L582.3 78.8L582.55 78.65L582.82 78.51L583.08 78.37L583.35 78.23L583.63 78.1L583.91 77.98L584.19 77.86L584.48 77.74L584.77 77.63L585.06 77.53L585.36 77.43L585.67 77.33L585.98 77.24L586.29 77.16L586.61 77.07L586.93 77L587.25 76.93L587.58 76.86L587.91 76.8L588.25 76.74L588.59 76.69L588.93 76.65L589.28 76.6L589.63 76.57L589.98 76.54L590.34 76.51L590.71 76.49L591.07 76.47L591.44 76.46L591.82 76.45L592.2 76.45L592.34 76.45L592.48 76.45L592.62 76.45L592.76 76.45L592.9 76.46L593.05 76.46L593.19 76.47L593.34 76.47L593.49 76.48L593.64 76.49L593.78 76.49L593.94 76.5L594.09 76.51L594.24 76.52L594.39 76.53L594.55 76.54L594.7 76.56L594.86 76.57L595.02 76.58L595.18 76.6L595.34 76.61L595.5 76.63L595.66 76.64L595.83 76.66L595.99 76.67L596.16 76.69L596.33 76.71L596.5 76.73L596.67 76.75L596.84 76.77L597.02 76.79L597.19 76.81L597.37 76.83L597.55 76.85L597.73 76.87L597.91 76.89L598.1 76.92L598.28 76.94L598.45 76.97L598.62 77L598.79 77.03L598.96 77.07L599.13 77.1L599.3 77.13L599.47 77.17L599.63 77.2L599.8 77.23L599.97 77.27L600.13 77.3L600.3 77.34L600.46 77.37L600.63 77.41L600.79 77.44L600.96 77.48L601.12 77.52L601.28 77.55L601.45 77.59L601.61 77.63L601.77 77.66L601.93 77.7L602.1 77.74L602.26 77.78L602.42 77.81L602.58 77.85L602.74 77.89L602.9 77.93L603.05 77.97L603.21 78L603.37 78.04L603.53 78.08L603.69 78.12L603.84 78.16L604 78.2L604.16 78.24L604.31 78.27L604.47 78.31L604.47 71.15L604.46 70.89L604.46 70.63L604.45 70.37L604.44 70.12L604.42 69.87L604.4 69.63L604.38 69.38L604.35 69.15L604.32 68.91L604.29 68.68L604.25 68.45L604.21 68.23L604.16 68.01L604.12 67.79L604.07 67.57L604.01 67.36L603.95 67.16L603.89 66.95L603.83 66.75L603.76 66.56L603.69 66.37L603.62 66.18L603.54 65.99L603.46 65.81L603.38 65.64L603.29 65.46L603.2 65.29L603.11 65.13L603.01 64.97L602.91 64.81L602.81 64.65L602.7 64.5L602.6 64.36L602.49 64.22L602.37 64.08L602.25 63.94L602.13 63.81L602.01 63.69L601.89 63.58L601.75 63.47L601.62 63.37L601.47 63.27L601.33 63.17L601.17 63.07L601.02 62.97L600.85 62.88L600.69 62.78L600.51 62.69L600.34 62.61L600.15 62.52L599.97 62.44L599.78 62.36L599.58 62.28L599.38 62.2L599.17 62.13L598.96 62.06L598.75 61.99L598.53 61.93L598.31 61.87L598.08 61.81L597.85 61.75L597.61 61.7L597.37 61.65L597.12 61.61L596.87 61.56L596.62 61.52L596.36 61.49L596.1 61.46L595.83 61.43L595.56 61.4L595.29 61.38L595.01 61.36L594.73 61.35L594.45 61.34L594.16 61.33L593.87 61.33L593.59 61.33L593.31 61.34L593.02 61.34L592.74 61.35L592.46 61.36L592.18 61.37L591.89 61.38L591.61 61.4L591.32 61.42L591.03 61.44L590.75 61.46L590.46 61.49L590.17 61.52L589.88 61.55L589.59 61.58L589.3 61.61L589 61.65L588.71 61.69L588.42 61.74L588.12 61.78L587.83 61.83L587.53 61.88L587.23 61.94L586.93 61.99L586.64 62.05L586.34 62.11L586.04 62.18L585.73 62.25L585.43 62.32L585.13 62.39L584.82 62.47L584.52 62.55L584.21 62.63L583.91 62.72L583.6 62.81L583.29 62.9L582.98 63L582.67 63.1L582.62 63.11L582.57 63.13L582.52 63.14L582.47 63.16L582.42 63.18L582.37 63.19L582.32 63.21L582.28 63.22L582.23 63.24L582.19 63.25L582.15 63.27L582.11 63.28L582.07 63.3L582.03 63.31L581.99 63.32L581.95 63.34L581.91 63.35L581.88 63.37L581.84 63.38L581.81 63.39L581.77 63.41L581.74 63.42L581.71 63.43L581.68 63.45L581.62 63.47L581.59 63.48L581.56 63.49L581.53 63.5L581.5 63.51L581.47 63.53L581.45 63.54L581.42 63.55L581.4 63.55L581.37 63.56L581.35 63.57L581.32 63.58L581.3 63.59L581.28 63.6L581.25 63.6L581.23 63.61L581.2 63.62L581.18 63.63L581.15 63.64L581.13 63.64L581.1 63.65L581.08 63.66L581.05 63.66L581.03 63.67L581 63.68L580.98 63.69L580.95 63.69L580.92 63.7L580.9 63.71L580.87 63.71L580.85 63.72L580.82 63.72L580.8 63.73L580.77 63.74L580.75 63.74L580.72 63.75L580.7 63.75L580.68 63.75L580.65 63.76L580.63 63.76L580.61 63.77L580.59 63.77L580.56 63.77L580.54 63.78L580.52 63.78L580.5 63.78L580.49 63.78L580.47 63.78L580.45 63.78L580.43 63.79L580.42 63.79L580.36 63.78L580.31 63.78L580.26 63.78L580.21 63.77L580.16 63.77L580.11 63.76L580.07 63.75L580.02 63.73L579.98 63.72L579.94 63.71L579.9 63.69L579.86 63.67L579.82 63.65L579.78 63.63L579.75 63.61L579.71 63.58L579.68 63.56L579.65 63.53L579.62 63.5L579.59 63.47L579.56 63.44L579.54 63.41L579.51 63.38L579.49 63.34L579.47 63.3L579.45 63.27L579.43 63.23L579.42 63.19L579.4 63.14L579.39 63.1L579.38 63.05L579.37 63.01L579.36 62.96L579.35 62.91L579.34 62.86L579.34 62.81L579.34 62.76L579.34 62.71L579.34 61.33L579.34 61.26L579.34 61.2L579.34 61.13L579.35 61.07L579.36 61L579.37 60.94L579.38 60.88L579.39 60.82L579.4 60.77L579.42 60.71L579.43 60.66L579.45 60.6L579.47 60.55L579.49 60.5L579.51 60.45L579.54 60.4L579.56 60.36L579.59 60.31L579.62 60.26L579.65 60.22L579.68 60.18L579.71 60.13L579.75 60.09L579.78 60.05L579.82 60.01L579.86 59.98L579.9 59.94L579.94 59.9L579.98 59.86L580.02 59.83L580.07 59.79L580.11 59.76L580.16 59.73L580.21 59.69L580.26 59.66L580.31 59.63L580.36 59.6L580.42 59.56L580.59 59.5L580.76 59.43L580.93 59.36L581.1 59.3L581.28 59.23L581.45 59.17L581.62 59.11L581.8 59.05L581.97 59L582.15 58.94L582.32 58.88L582.5 58.83L582.68 58.78L582.85 58.72L583.03 58.67L583.21 58.62L583.39 58.57L583.57 58.52L583.75 58.47L583.94 58.42L584.12 58.38L584.3 58.33L584.49 58.28L584.68 58.24L584.86 58.19L585.05 58.15L585.24 58.1L585.43 58.05L585.62 58.01L585.81 57.96L586 57.92L586.2 57.87L586.39 57.83L586.59 57.78L586.79 57.74L586.99 57.69L587.19 57.65L587.39 57.6L587.56 57.58L587.73 57.56L587.9 57.53L588.07 57.51L588.25 57.49L588.42 57.47L588.6 57.45L588.78 57.43L588.95 57.41L589.13 57.39L589.31 57.37L589.49 57.35L589.67 57.34L589.85 57.32L590.03 57.3L590.21 57.29L590.39 57.27L590.58 57.26L590.76 57.25L590.95 57.23L591.13 57.22L591.32 57.21L591.5 57.2L591.69 57.19L591.88 57.18L592.06 57.17L592.25 57.16L592.44 57.15L592.63 57.14L592.82 57.14L593.01 57.13L593.2 57.12L593.39 57.12L593.58 57.12L593.78 57.11L593.97 57.11L594.16 57.11L594.36 57.11L595.12 57.12L595.86 57.15ZM589.79 80.79L588.32 81.06L586.98 81.44L585.78 81.93L584.73 82.52L583.82 83.23L583.05 84.05L582.42 84.98L581.93 86.02L581.58 87.17L581.37 88.43L581.3 89.8L581.35 90.97L581.5 92.06L581.75 93.04L582.1 93.94L582.55 94.74L583.1 95.44L583.75 96.05L584.49 96.57L585.33 97L586.26 97.33L587.3 97.56L588.42 97.7L589.64 97.75L590.14 97.74L590.65 97.72L591.16 97.68L591.67 97.63L592.19 97.57L592.72 97.49L593.25 97.39L593.79 97.28L594.34 97.15L594.89 97.01L595.46 96.85L596.03 96.67L596.61 96.47L597.18 96.26L597.75 96.04L598.33 95.8L598.91 95.55L599.49 95.28L600.07 95.01L600.66 94.72L601.26 94.42L601.85 94.11L602.45 93.78L603.05 93.45L603.66 93.1L604.27 92.74L604.27 82.04L603.35 81.83L602.45 81.62L601.56 81.44L600.68 81.28L599.82 81.13L598.96 81L598.12 80.88L597.28 80.79L596.45 80.71L595.63 80.65L594.81 80.61L593.99 80.58L593.18 80.57L591.41 80.62L589.79 80.79Z"
      id="bwzkXJep8"></path>
  </defs>
  <g>
    <g>
      <g>
        <use xlink:href="#b4WFJL5JGh" opacity="1" fill="#00caff" fill-opacity="1"></use>
        <g>
          <use xlink:href="#b4WFJL5JGh" opacity="1" fill-opacity="0" stroke="#000000" stroke-width="1"
               stroke-opacity="0"></use>
        </g>
      </g>
      <g>
        <use xlink:href="#h3rR9q3DPC" opacity="1" fill="#333e48" fill-opacity="1"></use>
        <g>
          <use xlink:href="#h3rR9q3DPC" opacity="1" fill-opacity="0" stroke="#000000" stroke-width="1"
               stroke-opacity="0"></use>
        </g>
      </g>
      <g>
        <use xlink:href="#a6VtT1oJlc" opacity="1" fill="#333e48" fill-opacity="1"></use>
        <g>
          <use xlink:href="#a6VtT1oJlc" opacity="1" fill-opacity="0" stroke="#000000" stroke-width="1"
               stroke-opacity="0"></use>
        </g>
      </g>
      <g>
        <use xlink:href="#b1j0pWh0Qz" opacity="1" fill="#333e48" fill-opacity="1"></use>
        <g>
          <use xlink:href="#b1j0pWh0Qz" opacity="1" fill-opacity="0" stroke="#000000" stroke-width="1"
               stroke-opacity="0"></use>
        </g>
      </g>
      <g>
        <use xlink:href="#a78X0sLUXX" opacity="1" fill="#333e48" fill-opacity="1"></use>
        <g>
          <use xlink:href="#a78X0sLUXX" opacity="1" fill-opacity="0" stroke="#000000" stroke-width="1"
               stroke-opacity="0"></use>
        </g>
      </g>
      <g>
        <use xlink:href="#bme1yyASj" opacity="1" fill="#333e48" fill-opacity="1"></use>
        <g>
          <use xlink:href="#bme1yyASj" opacity="1" fill-opacity="0" stroke="#000000" stroke-width="1"
               stroke-opacity="0"></use>
        </g>
      </g>
      <g>
        <use xlink:href="#fBeAnqvYY" opacity="1" fill="#333e48" fill-opacity="1"></use>
        <g>
          <use xlink:href="#fBeAnqvYY" opacity="1" fill-opacity="0" stroke="#000000" stroke-width="1"
               stroke-opacity="0"></use>
        </g>
      </g>
      <g>
        <use xlink:href="#a7IehCuzl" opacity="1" fill="#333e48" fill-opacity="1"></use>
        <g>
          <use xlink:href="#a7IehCuzl" opacity="1" fill-opacity="0" stroke="#000000" stroke-width="1"
               stroke-opacity="0"></use>
        </g>
      </g>
      <g>
        <use xlink:href="#ajPRn87v7" opacity="1" fill="#333e48" fill-opacity="1"></use>
        <g>
          <use xlink:href="#ajPRn87v7" opacity="1" fill-opacity="0" stroke="#000000" stroke-width="1"
               stroke-opacity="0"></use>
        </g>
      </g>
      <g>
        <use xlink:href="#daIOQm5ovW" opacity="1" fill="#333e48" fill-opacity="1"></use>
        <g>
          <use xlink:href="#daIOQm5ovW" opacity="1" fill-opacity="0" stroke="#000000" stroke-width="1"
               stroke-opacity="0"></use>
        </g>
      </g>
      <g>
        <use xlink:href="#a2UrdLdWTS" opacity="1" fill="#333e48" fill-opacity="1"></use>
        <g>
          <use xlink:href="#a2UrdLdWTS" opacity="1" fill-opacity="0" stroke="#000000" stroke-width="1"
               stroke-opacity="0"></use>
        </g>
      </g>
      <g>
        <use xlink:href="#bwzkXJep8" opacity="1" fill="#333e48" fill-opacity="1"></use>
        <g>
          <use xlink:href="#bwzkXJep8" opacity="1" fill-opacity="0" stroke="#000000" stroke-width="1"
               stroke-opacity="0"></use>
        </g>
      </g>
    </g>
  </g>
</svg>
